<?xml version="1.0" encoding="UTF-8" standalone="no"?>
<!DOCTYPE svg PUBLIC "-//W3C//DTD SVG 1.1//EN"
 "http://www.w3.org/Graphics/SVG/1.1/DTD/svg11.dtd">
<!-- Generated by graphviz version 2.49.3 (20211023.0002)
 -->
<!-- Pages: 1 -->
<svg width="514pt" height="188pt"
 viewBox="0.00 0.00 513.50 188.00" xmlns="http://www.w3.org/2000/svg" xmlns:xlink="http://www.w3.org/1999/xlink">
<g id="graph0" class="graph" transform="scale(1 1) rotate(0) translate(4 184)">
<!-- Home -->
<g id="node1" class="node">
<title>Home</title>
<path fill="white" stroke="black" d="M42,-108C42,-108 12,-108 12,-108 6,-108 0,-102 0,-96 0,-96 0,-84 0,-84 0,-78 6,-72 12,-72 12,-72 42,-72 42,-72 48,-72 54,-78 54,-84 54,-84 54,-96 54,-96 54,-102 48,-108 42,-108"/>
<text text-anchor="middle" x="27" y="-86.3" font-family="Times New Roman,serif" font-size="14.00">Home</text>
</g>
<!-- News -->
<g id="node2" class="node">
<title>News</title>
<path fill="white" stroke="black" d="M114,-108C114,-108 84,-108 84,-108 78,-108 72,-102 72,-96 72,-96 72,-84 72,-84 72,-78 78,-72 84,-72 84,-72 114,-72 114,-72 120,-72 126,-78 126,-84 126,-84 126,-96 126,-96 126,-102 120,-108 114,-108"/>
<text text-anchor="middle" x="99" y="-86.3" font-family="Times New Roman,serif" font-size="14.00">News</text>
</g>
<!-- Contact -->
<g id="node3" class="node">
<title>Contact</title>
<path fill="white" stroke="black" d="M193.5,-108C193.5,-108 156.5,-108 156.5,-108 150.5,-108 144.5,-102 144.5,-96 144.5,-96 144.5,-84 144.5,-84 144.5,-78 150.5,-72 156.5,-72 156.5,-72 193.5,-72 193.5,-72 199.5,-72 205.5,-78 205.5,-84 205.5,-84 205.5,-96 205.5,-96 205.5,-102 199.5,-108 193.5,-108"/>
<text text-anchor="middle" x="175" y="-86.3" font-family="Times New Roman,serif" font-size="14.00">Contact</text>
</g>
<!-- Not Found -->
<g id="node4" class="node">
<title>Not Found</title>
<path fill="white" stroke="black" d="M290,-108C290,-108 236,-108 236,-108 230,-108 224,-102 224,-96 224,-96 224,-84 224,-84 224,-78 230,-72 236,-72 236,-72 290,-72 290,-72 296,-72 302,-78 302,-84 302,-84 302,-96 302,-96 302,-102 296,-108 290,-108"/>
<text text-anchor="middle" x="263" y="-86.3" font-family="Times New Roman,serif" font-size="14.00">Not Found</text>
</g>
<!-- Profile -->
<g id="node5" class="node">
<title>Profile</title>
<path fill="white" stroke="black" d="M343,-36C343,-36 313,-36 313,-36 307,-36 301,-30 301,-24 301,-24 301,-12 301,-12 301,-6 307,0 313,0 313,0 343,0 343,0 349,0 355,-6 355,-12 355,-12 355,-24 355,-24 355,-30 349,-36 343,-36"/>
<text text-anchor="middle" x="328" y="-14.3" font-family="Times New Roman,serif" font-size="14.00">Profile</text>
</g>
<!-- Friends -->
<g id="node6" class="node">
<title>Friends</title>
<path fill="white" stroke="black" d="M420.5,-36C420.5,-36 385.5,-36 385.5,-36 379.5,-36 373.5,-30 373.5,-24 373.5,-24 373.5,-12 373.5,-12 373.5,-6 379.5,0 385.5,0 385.5,0 420.5,0 420.5,0 426.5,0 432.5,-6 432.5,-12 432.5,-12 432.5,-24 432.5,-24 432.5,-30 426.5,-36 420.5,-36"/>
<text text-anchor="middle" x="403" y="-14.3" font-family="Times New Roman,serif" font-size="14.00">Friends</text>
</g>
<!-- Theme -->
<g id="node7" class="node">
<title>Theme</title>
<path fill="white" stroke="black" d="M493.5,-36C493.5,-36 462.5,-36 462.5,-36 456.5,-36 450.5,-30 450.5,-24 450.5,-24 450.5,-12 450.5,-12 450.5,-6 456.5,0 462.5,0 462.5,0 493.5,0 493.5,0 499.5,0 505.5,-6 505.5,-12 505.5,-12 505.5,-24 505.5,-24 505.5,-30 499.5,-36 493.5,-36"/>
<text text-anchor="middle" x="478" y="-14.3" font-family="Times New Roman,serif" font-size="14.00">Theme</text>
</g>
<!-- SettingsNotFound -->
<g id="node8" class="node">
<title>SettingsNotFound</title>
<path fill="white" stroke="black" d="M271,-36C271,-36 217,-36 217,-36 211,-36 205,-30 205,-24 205,-24 205,-12 205,-12 205,-6 211,0 217,0 217,0 271,0 271,0 277,0 283,-6 283,-12 283,-12 283,-24 283,-24 283,-30 277,-36 271,-36"/>
<text text-anchor="middle" x="244" y="-14.3" font-family="Times New Roman,serif" font-size="14.00">Not Found</text>
</g>
<!-- Main Router -->
<g id="node9" class="node">
<title>Main Router</title>
<path fill="lightblue" stroke="black" d="M206,-180C206,-180 144,-180 144,-180 138,-180 132,-174 132,-168 132,-168 132,-156 132,-156 132,-150 138,-144 144,-144 144,-144 206,-144 206,-144 212,-144 218,-150 218,-156 218,-156 218,-168 218,-168 218,-174 212,-180 206,-180"/>
<text text-anchor="middle" x="175" y="-158.3" font-family="Times New Roman,serif" font-size="14.00">Main Router</text>
</g>
<!-- Main Router&#45;&gt;Home -->
<g id="edge1" class="edge">
<title>Main Router&#45;&gt;Home</title>
<path fill="none" stroke="black" d="M138.8,-143.88C112.61,-131.49 77.79,-115.02 54.01,-103.78"/>
</g>
<!-- Main Router&#45;&gt;News -->
<g id="edge2" class="edge">
<title>Main Router&#45;&gt;News</title>
<path fill="none" stroke="black" d="M156.21,-143.7C144.43,-132.85 129.31,-118.92 117.57,-108.1"/>
</g>
<!-- Main Router&#45;&gt;Contact -->
<g id="edge3" class="edge">
<title>Main Router&#45;&gt;Contact</title>
<path fill="none" stroke="black" d="M175,-143.7C175,-132.85 175,-118.92 175,-108.1"/>
</g>
<!-- Main Router&#45;&gt;Not Found -->
<g id="edge4" class="edge">
<title>Main Router&#45;&gt;Not Found</title>
<path fill="none" stroke="black" d="M196.75,-143.7C210.39,-132.85 227.9,-118.92 241.5,-108.1"/>
</g>
<!-- Settings Router -->
<g id="node10" class="node">
<title>Settings Router</title>
<path fill="lightblue" stroke="black" d="M411.5,-108C411.5,-108 332.5,-108 332.5,-108 326.5,-108 320.5,-102 320.5,-96 320.5,-96 320.5,-84 320.5,-84 320.5,-78 326.5,-72 332.5,-72 332.5,-72 411.5,-72 411.5,-72 417.5,-72 423.5,-78 423.5,-84 423.5,-84 423.5,-96 423.5,-96 423.5,-102 417.5,-108 411.5,-108"/>
<text text-anchor="middle" x="372" y="-86.3" font-family="Times New Roman,serif" font-size="14.00">Settings Router</text>
</g>
<!-- Main Router&#45;&gt;Settings Router -->
<g id="edge5" class="edge">
<title>Main Router&#45;&gt;Settings Router</title>
<path fill="none" stroke="black" d="M218.23,-145.64C249.49,-134.53 291.73,-119.52 324.03,-108.04"/>
</g>
<!-- Settings Router&#45;&gt;Profile -->
<g id="edge6" class="edge">
<title>Settings Router&#45;&gt;Profile</title>
<path fill="none" stroke="black" d="M361.12,-71.7C354.3,-60.85 345.55,-46.92 338.75,-36.1"/>
</g>
<!-- Settings Router&#45;&gt;Friends -->
<g id="edge7" class="edge">
<title>Settings Router&#45;&gt;Friends</title>
<path fill="none" stroke="black" d="M379.66,-71.7C384.47,-60.85 390.64,-46.92 395.43,-36.1"/>
</g>
<!-- Settings Router&#45;&gt;Theme -->
<g id="edge8" class="edge">
<title>Settings Router&#45;&gt;Theme</title>
<path fill="none" stroke="black" d="M397.93,-71.88C414.36,-61.03 435.52,-47.05 451.97,-36.19"/>
</g>
<!-- Settings Router&#45;&gt;SettingsNotFound -->
<g id="edge9" class="edge">
<title>Settings Router&#45;&gt;SettingsNotFound</title>
<path fill="none" stroke="black" d="M340.69,-71.88C320.85,-61.03 295.29,-47.05 275.43,-36.19"/>
</g>
</g>
</svg>
